<?xml version="1.0" standalone="no"?>
<!DOCTYPE svg PUBLIC "-//W3C//DTD SVG 20010904//EN"
 "http://www.w3.org/TR/2001/REC-SVG-20010904/DTD/svg10.dtd">
<svg version="1.0" xmlns="http://www.w3.org/2000/svg"
 width="32.000000pt" height="32.000000pt" viewBox="0 0 32.000000 32.000000"
 preserveAspectRatio="xMidYMid meet">
<metadata>
Created by potrace 1.16, written by Peter Selinger 2001-2019
</metadata>
<g transform="translate(0.000000,32.000000) scale(0.100000,-0.100000)"
fill="#000000" stroke="none">
<path d="M128 233 c-83 -35 -108 -50 -108 -65 0 -12 11 -23 29 -29 20 -7 33
-22 44 -50 15 -38 30 -49 42 -29 9 15 41 12 55 -5 7 -9 22 -15 34 -13 17 3 23
17 38 88 25 121 24 150 -4 150 -13 -1 -71 -22 -130 -47z"/>
</g>
</svg>
