<?xml version="1.0" standalone="no"?>
<!DOCTYPE svg PUBLIC "-//W3C//DTD SVG 20010904//EN"
 "http://www.w3.org/TR/2001/REC-SVG-20010904/DTD/svg10.dtd">
<svg version="1.0" xmlns="http://www.w3.org/2000/svg"
 width="24.000000pt" height="24.000000pt" viewBox="0 0 24.000000 24.000000"
 preserveAspectRatio="xMidYMid meet">
<metadata>
Created by potrace 1.16, written by Peter Selinger 2001-2019
</metadata>
<g transform="translate(0.000000,24.000000) scale(0.100000,-0.100000)"
fill="#000000" stroke="none">
<path d="M30 120 l0 -90 50 0 50 0 0 34 c0 19 -6 37 -12 40 -10 5 -10 7 0 12
6 3 12 13 12 23 0 9 5 22 12 29 15 15 38 16 38 2 0 -5 -7 -10 -15 -10 -18 0
-20 -36 -2 -44 10 -5 10 -7 0 -12 -7 -3 -13 -21 -13 -40 0 -31 3 -34 30 -34
l30 0 0 90 0 90 -90 0 -90 0 0 -90z"/>
</g>
</svg>
